<svg width="32" height="32" viewBox="0 0 32 32" fill="none" xmlns="http://www.w3.org/2000/svg">
<rect width="32" height="32" rx="16" fill="#E9EAF3"/>
<path d="M18.8305 21.8069C17.0922 23.8421 14.2476 23.8421 12.5092 21.8069C12.163 21.4011 11.8957 20.9533 11.704 20.4809C12.0685 20.3864 12.3834 20.3675 12.7671 20.2871C12.9878 20.2409 13.2156 20.3133 13.3762 20.4806L14.5565 21.71C14.7349 21.8959 14.9748 22 15.2246 22H16.5143C16.8633 22 17.2254 21.9271 17.5801 21.8557C17.7365 21.8242 17.8915 21.7931 18.0433 21.7685C18.4717 21.6111 18.7483 21.4423 18.645 21.2931C18.585 21.2064 18.4702 21.1727 18.3191 21.1696L17.5341 21.274C17.3406 21.3093 17.1385 21.3447 16.9413 21.3641C16.4634 21.4111 16.1037 21.3006 15.6963 21.0801C15.3032 20.8672 15.3032 20.5832 15.4998 20.5122C15.5676 20.4878 15.7444 20.5477 15.947 20.6163C16.3321 20.7468 16.8103 20.9088 16.8103 20.5832C16.8103 20.2962 16.5698 20.175 16.2783 20.028C15.956 19.8655 15.6607 19.6826 15.3683 19.5014C14.8393 19.1737 14.3196 18.8516 13.6651 18.6666H11.3346C11.277 16.0388 13.2338 13.1367 14.4403 10.919L15.6699 8.66663L16.8994 10.919C17.983 12.9107 19.4476 15.2206 19.8932 17.4781C19.4752 17.5693 18.9147 17.6398 18.5662 17.7128C18.3455 17.759 18.1177 17.6866 17.9571 17.5193L16.7769 16.2899C16.5985 16.1041 16.3585 16 16.1087 16H14.8191C14.4701 16 14.108 16.0728 13.7532 16.1442C13.5968 16.1757 13.4418 16.2069 13.29 16.2314C12.8617 16.3889 12.585 16.5577 12.6883 16.7069C12.7483 16.7935 12.8631 16.8272 13.0142 16.8303L13.7992 16.7259C13.9928 16.6906 14.1948 16.6553 14.392 16.6359C14.8699 16.5888 15.2296 16.6993 15.637 16.9198C16.0301 17.1328 16.0301 17.4167 15.8335 17.4877C15.7658 17.5122 15.5889 17.4523 15.3863 17.3836C15.0013 17.2531 14.523 17.0911 14.523 17.4167C14.523 17.7037 14.7635 17.8249 15.055 17.9719C15.3773 18.1344 15.6726 18.3173 15.965 18.4985C16.494 18.8263 17.0137 19.1483 17.6682 19.3333H19.9439C19.8127 20.2256 19.449 21.0819 18.8305 21.8069Z" fill="#4B4E65"/>
</svg>
